<?xml version="1.0" encoding="UTF-8"?>
<svg id="Layer_2" data-name="Layer 2" xmlns="http://www.w3.org/2000/svg" viewBox="0 0 1081.92 1108.05">
  <defs>
    <style>
      .cls-1 {
        stroke: #000;
        stroke-miterlimit: 10;
        fill: #ffffff;
      }
    </style>
  </defs>
  <g id="Layer_1-2" data-name="Layer 1">
    <g>
      <path class="cls-1" d="m1041.79,162.27c.49-.83,1.39-1.4,2.21-1.31,2.53.29,5.25-1.37,7.49-5.03l25.95-42.17c3.8-6.18,5.2-15.95,2.77-22.39-2.81-7.3-8.96-7.41-13.24-.46l-26.32,42.79c-3.32,5.38-4.44,13.26-3.08,19.33.12.5.02,1.07-.29,1.59-60.3,101.54-104.63,266.28-130.46,381.79-.53,2.39-3.82,2.69-3.77.35,4.79-225.7,47.16-348.51,64.78-390.21.98-2.32-1.82-3.45-3.24-1.3-66.97,102.45-91.33,317.56-99.04,412.15-.2,2.49-3.75,3.17-3.81.73-.41-16.6-1-32.59-1.74-48,0-.11,0-.23.01-.34,14.44-123.54,28.17-308.67,1.06-432.17-.11-.47,0-1.01.27-1.51,2.82-5.28,3.9-12.84,2.37-18.83l-12.49-48.69c-1.9-7.42-7.02-10.44-11.62-6.1-4.96,4.65-7.33,15.09-5.33,22.86l12.71,49.45c1.14,4.51,3.54,7.04,6.26,7.34.67.07,1.2.48,1.35,1.15,22.07,100.66,16,246.5,5.08,363.22-.22,2.41-3.61,3.14-3.8.83-16.94-199.86-62.08-285.28-80.8-312.87-1.17-1.73-4.18.35-3.45,2.38,71.67,202.57,43.4,494.9,27.79,611.97-.34,2.55-3.95,2.99-3.79.46,17.37-274.17-32.19-397.63-55.05-438.94-1.07-1.92-4.27.18-3.52,2.3,43.85,123.83,32.88,281.69,27.34,335.76-.25,2.39-3.59,3.12-3.8.82-6.25-69.08-15.38-124.81-25.95-169.88-.01-.06-.02-.11-.03-.16-14.49-109.13-40.52-240.45-85.93-313.63-.2-.33-.27-.75-.2-1.18.86-5.64.15-11.4-2.22-14.9l-22.76-33.49c-3.36-4.9-8.83-4.38-12.54,2.02-4.23,7.31-4.49,18.36-.77,23.88l23.12,34.04c2.43,3.56,5.87,3.79,8.96,1.27.95-.77,2.15-.75,2.68.11,31.77,52.66,53.83,136.14,68.95,219.26.41,2.25-2.89,3.89-3.68,1.83-28.97-75.22-60.44-97.76-73.84-104.25-1.68-.81-3.79,1.63-2.74,3.19,112.26,167.29,91.79,419.32,80.5,506.17-.32,2.49-3.84,3.01-3.8.56,1.32-79.21-4.46-133.84-12.68-171.51-.15-.65.09-1.42.61-2,2.57-2.9,4.46-4.63,5.34-5.41.14-.09.12-.39-.02-.36-1.94.31-3.84.76-5.71,1.3-.93.27-1.75-.19-1.96-1.06-10.33-42.7-23.79-61.37-32.26-69.32-1.47-1.37-4.12,1.01-3.16,2.83,10.68,20.27,17.04,46.72,20.73,74.16.11.81-.33,1.71-1.07,2.25-6.25,4.57-11.98,10.34-17.21,16.88-1.02,1.27-2.74,1.22-3.17-.06-7.34-21.94-15.73-39.63-24.38-53.87-.2-.34-.27-.77-.2-1.21,20.9-126.18,50.58-164.33,55.68-170.11.15-.15.08-.45-.06-.36-35.09,19.89-59.84,82.57-75.68,139.33-.44,1.59-2.34,2.4-3.31,1.4-9.32-9.62-17.97-15.87-24.92-19.88-.33-.19-.56-.51-.66-.9-6.91-27.3-15.78-39.75-17.6-42.07-.1-.11-.21.1-.15.27,2.65,11.01,4.65,22.19,6.09,33.34.19,1.47-1.36,2.96-2.72,2.61-.25-.06-.43-.1-.52-.13.29.19,1.6,1.22,3.61,3.25.24.23.39.57.43.94,9.52,86.92-13.7,171.87-16.77,182.55-.08.26-.22.1-.21-.09,10.61-92.94-15.43-140.67-18.56-146.05-.06-.11-.21.1-.15.28,20.6,107.57-23.52,225.76-26.09,232.51q-.08.02-.14-.03c-11.43-258.85,36.64-356.57,42.73-367.9.08-.14-.01-.36-.13-.28-52.28,58.56-70.4,286.51-72.88,321.07-.14-.02-.08,0-.21-.02,3.47-187.99-40.91-237.65-46.6-243.19-.1-.1-.18.16-.11.34,37.53,67.65,20.2,202.78,18.48,215.35q-.11.02-.21-.03c-2.58-43.03-7.74-78.24-14.36-107.11-.15-.68.1-1.47.65-2.07,1.85-1.97,3.21-3.21,3.93-3.83.11-.08.08-.39-.02-.37-1.44.23-2.84.51-4.23.85-.89.23-1.67-.24-1.87-1.08-13.18-53.81-31.37-84.15-46.3-101.01-.36-.41-.47-1.01-.31-1.63,17.76-67.42,36.08-90.9,40.01-95.34.11-.15.05-.44-.06-.36-22.75,12.9-41.16,43.82-55.61,79.44-.52,1.28-1.99,1.97-2.95,1.37-3.53-2.21-6.07-3.28-7.19-3.65-.1-.05-.18.22-.08.32,2.37,2.65,4.65,5.42,6.86,8.31.35.47.41,1.14.16,1.8-24.03,62.83-36.24,136.84-38.67,152.8-.04.26-.22.23-.21-.02,9.19-116.23-21.32-158.46-24.54-162.59-.07-.11-.18.1-.12.27,24.14,99.34-6.5,210.92-9.9,222.8-.04.19-.22.1-.17-.15,10.56-92.68-15.27-140.39-18.53-146.06-.1-.17-.25.05-.18.22,20.56,107.59-23.52,225.7-26.13,232.53q-.06-.05-.13-.04c-11.4-258.79,36.63-356.57,42.73-367.89.11-.15.02-.44-.13-.29-52.24,58.55-70.4,286.42-72.85,321.05-.17-.02-.1-.04-.24-.08,3.5-187.93-40.88-237.52-46.56-243.12-.1-.1-.18.16-.12.34,37.54,67.65,20.17,202.73,18.45,215.35-.11-.05-.07-.06-.18-.03-12.16-202.42-81.49-232.35-88.38-234.85-.1-.05-.18.22-.08.32,79.14,86.7,51.9,330.86,49.71,349.16-.11.02-.07.02-.18-.03-9.86-164.01-82.81-167.29-89.05-167.31-.14.03-.19.28-.08.39,29.6,28.88,42.41,71.78,46.22,115,1.97,22.21,1.75,44.61.68,66.88-1.02,20.95.55,50.27-7.27,69.39-4.2,10.24-10.58,17.6-1.66,26.82,20.43,21.11,73.67,11.3,97.28,9.74,149.69-9.87,112.48,4.99,189.22,15.2,76.74,10.22,159.86-42.51,250.27-36.09,5.94,45.75,82.47,38.91,125.08,36.07,42.6-2.84,54.49-11.14,123.06-54.51,68.57-43.37,74.16,14.19,107.13-21.9,26.83-29.37,2.51-59.29,1.83-93.01-.75-37.44.58-75.37,3.42-112.65,5.69-74.74,20.4-152.95,62.24-212.76,1.65-2.36,3.33-4.67,5.12-6.89,1.26-1.59.22-3.54-1.57-2.95-42.92,14.21-77.51,100.89-91.48,141.14-.81,2.34-4,2.19-3.63-.18,0-.06.02-.14.03-.21,2.19-13.83,4.7-28.02,7.57-42.35,2.87-14.39,6.02-28.96,9.59-43.23l2.66-10.81,2.82-10.59c1.85-7.18,3.94-14.04,5.89-20.98,2.01-6.9,4.13-13.7,6.25-20.37,2.18-6.62,4.26-13.28,6.49-19.54,4.34-12.8,8.9-24.71,13.32-36.03,4.49-11.15,8.88-21.6,13.12-30.9,8.45-18.72,16.14-33.32,21.67-43.23,5.52-9.85,8.96-14.97,8.96-14.97l-.04-.05s-3.74,3.74-10.05,11.56c-6.27,7.88-15.19,19.72-25.38,35.72-5.13,7.98-10.51,17.12-16.14,26.99-5.52,10.03-11.36,20.82-17.09,32.7-2.95,5.83-5.75,12.06-8.68,18.26-2.83,6.31-5.73,12.75-8.54,19.42-2.74,6.66-5.66,13.35-8.35,20.37l-4.08,10.57-3.95,10.74c-5.31,14.28-10.22,29.18-14.89,44.09-2.15,6.88-4.22,13.81-6.2,20.74-.69,2.39-3.96,2.46-3.73.06,12.24-127.34,36.9-197.32,48.97-225.21.98-2.26-1.71-3.46-3.17-1.41-54.52,76.84-76.2,224.01-83.19,286.1-.27,2.45-3.73,3.08-3.8.69-.58-19.14-.9-37.69-.99-55.66,0-.15.01-.29.04-.44,23.14-111.7,71.44-312.3,139.12-426.35ZM361.69,749.45c-1.08,4.28-1.76,7.51-2.13,9.24-.04.26-.21.17-.2-.02.27-5.03.6-9.81.93-14.66.48,1.43.95,2.9,1.4,4.38.1.32.1.69,0,1.06Zm12.6-40.89c-.57,1.51-2.39,2.14-3.28,1.17-2.34-2.58-4.69-4.86-7.01-6.87-.37-.32-.55-.82-.51-1.38,5.92-67.18,14.35-118.64,23.37-157.84.44-1.91,2.9-2.67,3.62-1.11,12.77,27.69,20.72,61.25,25.43,96.06.1.72-.24,1.52-.84,2.07-18.37,16.65-31.74,43.74-40.78,67.91Zm41.52,144.8c-.05.26-.22.29-.21.04-2.67-44.24-9.97-76.69-19.25-100.64-.1-.26-.13-.56-.11-.85,3.75-35.35,11.36-61.81,19.48-81.12.84-2,3.48-2.11,3.64-.15,7.17,86.78-2.27,171.76-3.56,182.72Zm191.22-256.25c-7.85,33.24-12.31,60.5-13.71,69.47-.04.26-.22.23-.2-.02,3.06-38.82,1.71-69.36-1.59-93.03-.29-2.11,2.62-3.7,3.59-1.96,3.78,6.75,7.79,14.8,11.84,24.35.15.35.17.77.07,1.18Zm28.65,104.15c-10.49,26.29-16,50.69-17.27,56.72-.05.26-.22.17-.21-.02,1.91-32.93,4.41-62.64,7.33-89.58.24-2.24,3.3-3.08,3.76-1.05,2.31,10.16,4.51,21.06,6.53,32.78.06.36,0,.76-.14,1.15Zm48.66,52c-.14,2.42-3.57,3.25-3.8.93-2.65-25.99-6.58-48.81-11.34-68.96-.08-.35-.06-.75.08-1.14,3.52-10.29,7.3-19,11.03-26.3.94-1.84,3.4-1.8,3.54.05,2.9,36.83,1.81,72.72.49,95.42Z"/>
      <g>
        <g>
          <path class="cls-1" d="m352.38,380.15s-20.38,70.07-36.4,98.98c-16.02,28.91-1.64,90.01-1.64,90.01,0,0,7.26,44.26,3.58,79.79-3.68,35.53-56.07,101.19-.41,122.7,55.66,21.51,98.4,60.31,101.65,76.11,3.25,15.8,98.01,120.78,101.26,136.58,3.25,15.8.1,18.28,28.19,12.51,28.09-5.77,155.43,8.33,176.5,4,21.07-4.33,84.69-6.42,110.77,4.69,26.07,11.11,65.02-4.21,80.77-16.59,15.76-12.39,79.72-93.7,106.2-95.48,26.47-1.78,31.8-58.99,31.8-58.99,0,0,4.59-19.24-23.17-83.07-27.75-63.83-74.65-124.74-79.14-146.6-4.49-21.86-52.27-49.56-67.13-68.46-14.86-18.9-56.23-64.38-56.23-64.38,0,0,.65-10.2-76.92-22.62-77.57-12.42-163.77-26.74-222.7-37.5-58.93-10.76-52,5.19-76.26,2.86s-90.07-48-100.72-34.52Z"/>
          <path class="cls-1" d="m357.54,390.39s-20.78,59.16-26.34,72.2c-5.56,13.03-16.9,29.09-15.27,36.99,1.62,7.9-4.96,60.49,6.48,62.71,11.44,2.23,53.85,12.72,76.43,29.13,22.58,16.4,64.15,67.33,76.13,72.19,11.98,4.86,33.81,13.18,33.81,13.18,0,0,57.02-51.97,76.83-62.44,19.81-10.47,58.64-35.83,69.32-48.09,10.68-12.26,53.26-28.32,63.29-30.39,10.03-2.06,87.25-58.18,85.98-64.32-1.26-6.14-80.82-20.4-112.71-24.21-31.89-3.82-109.8-23.8-123.74-23.37-13.94.42-34.02-8.26-46.21-8.2s-14.54-2.5-27.19-1.73c-12.65.77-40.69,8.77-52.13,2.58-11.44-6.19-41.16-14.31-51.67-21.92-10.51-7.6-14.73-8.36-21.37-9.03s-11.61-3.1-11.63,4.73Z"/>
          <path class="cls-1" d="m520.03,687.49c1.4-2.12,11.64-14.59,32.98-35.44,21.33-20.85,10.95-17.5,30.45-28.21,19.5-10.72,16.11-9.41,28.83-18.73,12.72-9.32,15.17-12.27,28.01-21,12.84-8.74,17.04-12.04,29.66-18.9,12.62-6.86,5.7-7.88,31.44-16.22s26.99-14.09,33.42-18.45c6.42-4.37,19.04-11.23,26.63-15.84s23.59-15.82,31.4-22.31c7.82-6.49,13.4-14.95,20.18-17.56s26.31,12.28,28.56,17.31,54.34,67.33,70.93,75.09c16.6,7.76,24.95,20.49,31.23,33.23s42.58,76.64,42.58,76.64c0,0,31.35,57.6,35.05,69.65,3.7,12.05-111.89-19.1-134.51,1.41-22.62,20.51-98.73,30.04-102.69,34.52-3.97,4.47-113.43.13-123.52-1.46-10.09-1.59-89.28,46.4-97.2,55.35-7.92,8.95-19.61-30.13-28.64-77.07-9.03-46.94-14.79-71.99-14.79-71.99Z"/>
          <path class="cls-1" d="m793.81,788s23.98-7.98,40.83-12.05c16.85-4.07,34.91-12.66,45.43-17.87,10.52-5.21,7.87-7.72,17.18-8.41,9.31-.69,10.66-.06,20.27-.81,9.6-.75,23.25-1.12,36.09.51,12.84,1.63,41.95.84,43.66,1.71s20.4,1.3,23.39,2.51c2.99,1.21,13.99,19.09,15.92,31.5,1.94,12.41,14.7,41.51,10.49,50.91-4.2,9.4-12.06,30.54-13.7,31.48-1.64.95-19.67-18.53-32.83-26.19-13.16-7.66-22.04-24.14-50.99-25.51-28.95-1.37-50.72,2.49-61.26,4.66-10.53,2.16-17.16-9.28-51.04-13.91-33.89-4.63-43.45-18.52-43.45-18.52Z"/>
          <path class="cls-1" d="m541.07,991.8c-.17-6,6.17-29.33,6.8-44.09.63-14.77,2.37-38.91,5.6-49.95,3.22-11.03,6.52-30.62,8.38-33.44,1.86-2.82,50.77-37.88,58.13-43.66,7.35-5.78,29.39-26.17,37.46-28.44,8.07-2.27,14.53-.54,25.77-2.24,11.24-1.7,35.06,4.39,40.33,3.3,5.27-1.08,37.59-4.06,46.97-2.94s25.71,9.36,25.71,9.36c0,0,43,10.38,49.87,12.63s15.72,3.78,17.55,5.24c1.82,1.46,12.55,3.22,13.09,4.33.53,1.11,2.09,5.71,11.47,2.39,9.38-3.32,12.78-4.59,20.19-4.15,7.41.44,18.82-1.91,24.1-1.46,5.28.44,23.67.93,26.56,3.08,2.88,2.15,7.86,1.13,13.68,5.73,5.82,4.6,23.34,15.64,27.22,18.2,3.88,2.56,30.4,21.81,33.3,27.01,2.9,5.2,3.63,10.23.59,11.77-3.04,1.54-30.68,10.92-33.19,16.58-2.51,5.66-25.5,19.88-28.82,23-3.32,3.12-20.09,23.95-25.57,28.43-5.48,4.48-19.54,28.11-31.99,32.8-12.45,4.69-16.92,14.15-37.58,17.48-20.66,3.33-30.49,5.96-33.56,2.93-3.06-3.03-33.39-9.61-33.39-9.61,0,0-36-4.5-42.32-4.11-6.33.38-20.36,4.79-34.19,4.28-13.83-.51-32.21,2.04-34.44,1.59-2.23-.46-113.42-10.25-128.99-7.35s-28.57,5.89-28.7,1.32Z"/>
          <path class="cls-1" d="m320.58,571.1s5.73-1.18,21.35,6.59c15.62,7.77,30.96,5.23,36.5,11.41,5.54,6.18,15.73,5.31,28.68,17.9,12.96,12.59,29.59,34.18,42.06,44.42,12.47,10.25,28.98,22.28,41.36,29.11s14.98,7.58,20.1,14.72c5.13,7.15,20.47,72.92,23,85.21,2.52,12.29,21.66,64.48,20.11,71.5-1.54,7.03-11.08,88.28-12.2,97.66-1.12,9.38-8.27,30.98-8.27,30.98,0,0-14.61-14.69-23.22-26.95-8.62-12.26-12.99-18.68-22.05-27.19-9.07-8.51-30.14-27.96-41.13-45.83-10.99-17.87-30.84-49.17-40.27-59.43-9.43-10.26-33.53-26.66-33.53-26.66,0,0-60.49-27.22-61.93-34.24-1.44-7.02-11.71-9.52-10.2-21.96,1.51-12.44-1.63-15.86.97-26.97s4.76-16.43,6.91-23.78c2.15-7.35,9.51-19.03,12.72-46.94,3.21-27.9-3.72-72.84-.94-69.54Z"/>
        </g>
        <g>
          <path class="cls-1" d="m28.44,805.91c9.44-7.08,64.07-54.06,72.69-71.41s35.41-26.54,35.41-26.54c0,0,160.32-28.27,199.69-15.46,39.37,12.81,69.87,18.97,71.35,16.65,1.48-2.32,104.49-6.98,128.34-.67s148.27,82.32,148.27,82.32c0,0,93.32,72.73,88.54,85.99-4.78,13.26-48.06,45.69-59.92,64.26-11.86,18.56-26.79,72.07-65.58,108.4-38.8,36.33-155.3,39.02-179,55.57-23.7,16.55-234.31-52.9-242.29-59.01-7.99-6.1-63.93-48.81-82.5-51.82-18.57-3.01-65.38-15.08-103.06-17.07-37.67-1.99-46-1.8-35.98-22.61,10.02-20.81,24.46-59.44,7.6-72.2-16.85-12.76,16.44-76.4,16.44-76.4Z"/>
          <path class="cls-1" d="m7.99,964.71s3.14-5.98,6.35-18.06c3.21-12.08,10.48-21.96,9.68-28.61s7.96-15.24,4.12-21.63c-3.84-6.39-6.3-9.38-10.67-15.38-4.37-6-8.23-9.15-4.99-20.84,3.24-11.7,6.97-24.17,9.52-30.51,2.55-6.35,2.11-8.43,7.7-15.04,5.59-6.61,9.66-.79,13.38.45,3.71,1.25,47.98,12.8,64.99,16.98,17.01,4.18,32.38,19.26,55.07,21.59,22.7,2.33,50.84,10.26,78.16,7.92,27.33-2.34,52.29-2.92,68.69,4.13s29.14,20.48,33.65,35.24c4.51,14.76,34.01,71.24,46.66,83.52,12.65,12.28,34.52,35.79,48.29,41.19,13.77,5.4,14.64,37.39,15.04,52.81.39,15.42.42,26.28-27.54,20.64-27.96-5.64-132.63-32.38-138.77-36.24-6.14-3.86-46.99-14.35-58.76-26.08-11.77-11.73-50.11-32.57-58.88-38.08-8.78-5.51-19.21-10.99-27.63-11.94-8.41-.95-64.06-8.81-67.57-11.02-3.51-2.21-68.88-5.39-66.46-11.04Z"/>
          <path class="cls-1" d="m347.08,875.4c.14,1.79-4.17,20.15,15.69,49.7,19.86,29.55,18.29,33.44,26.73,45.25,8.44,11.81,28.3,41.36,44.48,48.27s18.22,10.54,21.24,17.14c3.03,6.6,7.29,49.75,9.75,52.74,2.46,2.99,3.82,9.63,13.3,6.55,9.48-3.08,51.48-9.57,60.21-11.68,8.73-2.11,53.65-6.76,74.71-18.11,21.05-11.35,26.22-12.8,34.34-22.51,8.12-9.71,22.89-23.2,24.13-28.56,1.24-5.36,20.74-39.73,23.42-44.55,2.67-4.82,6.45-13.3,8.47-19.25,2.03-5.95,8.99-12.78,8.75-21.07-.24-8.28,3.44-9.22-5.13-17.32-8.56-8.09-2.92-10.51-18.7-15-15.78-4.49-12,1.13-33.44-6.37-21.44-7.51-42.26-12.46-45.43-20.96-3.18-8.5-9.64-16.35-21.86-18.07-12.23-1.72-40.07,4.64-48.22,1.68-8.16-2.96-73.96,8.28-108.88,4.22-34.92-4.05-83.76,15.29-83.55,17.88Z"/>
          <path class="cls-1" d="m606,850.61s2.21,13.32,12.26,18.55c10.05,5.23,5.68,7.9,21.32,10.69,15.64,2.78,17.16,11.32,31.35,11.57,14.19.24,34.78,7.49,39.75,14.95,4.97,7.46,3.78,13.79,6.21,14.08,2.43.29,7.55-.83,15.46-8.87,7.91-8.04,24.9-17.15,24.72-19.43-.18-2.28,9.37-7.93,11.07-12.83,1.69-4.9-25.02-34.15-35.94-40.47-10.92-6.32-21.29-11.25-28.51-17.93-7.21-6.68-8.15-13.24-15.04-15.94-6.88-2.7-10.08-.91-22.48-4.91-12.41-4-32.02,1.02-33.2,1.91-1.18.88-7.46,11.03-11.15,22.26-3.69,11.23-15.83,26.37-15.83,26.37Z"/>
          <path class="cls-1" d="m415.69,717.68s8.9,9.65,50.67,31.84c41.78,22.19,36.15,30.03,62.7,33.71s20.31,11.98,53.59,9.7c33.28-2.28,29.56,5.95,49.39,3.78,19.84-2.17,37.94.69,42.41.97,4.47.28-.07-4.38-7.06-8.41-6.99-4.03-9.35-6.69-23.07-14.54-13.72-7.85-20.52-12.03-28.47-18.16-7.95-6.13-33.69-17.43-36.52-20.57-2.84-3.13-19.28-14.18-32.4-18.46-13.12-4.27-17.13-5.7-25.28-6.85-8.15-1.15-36.21-1.07-47.92-1.56-11.71-.49-6.8,1.87-20.76,1.05-13.96-.82-41.68,5.65-37.28,7.49Z"/>
          <path class="cls-1" d="m47.67,806.61c4.76-1.53,4.04-12.1,14.97-21.49,10.93-9.4,17.17-14.69,24.12-21.71s14.41-18.05,17.16-20.12c2.75-2.06,7.76-12.47,13.32-16.03,5.55-3.56,14.56-10.91,23.62-12.26,9.06-1.35,15.08-2.45,30.83-7.19,15.75-4.74,17.73-.79,40.67-5.89,22.94-5.1,36.6-6.27,51.67-5.48,15.07.8,31.88-2.74,47.83-1.39,15.95,1.35,28.57,2.77,40.49,5.93s46.37,12.87,55.24,21.7,28.08,13.78,38.54,19.85c10.46,6.06,43.16,28.71,50.46,31.7,7.3,2.99,15.49,10.16,24.64,11.56,9.16,1.4,22.01,4.06,25.08,5.99,3.07,1.93,15.01,5.27,28.19,5.07,13.18-.21,19.2-1.49,26.18-1.08,6.98.41,17.24,3.6,18.12,4.16s5.77,6.15,2.66,10.7c-3.11,4.55-2.56,25.5-20.09,32.19-17.53,6.69-27.81,6.74-36.31,4.65-8.5-2.09-64.19,7.01-77.69,5.03-13.5-1.98-35.17,5-61.87,1.24-26.7-3.77-61.59,8.28-71.28,12.31-9.68,4.03-13.27,7.93-17.95,4.99s-22.46-13.39-50.55-13.7c-28.09-.31-61.58,1.42-71.95.32-10.37-1.09-37.39-5.43-52.7-9.26-15.31-3.84-19.72-3.36-26.42-7.2-6.7-3.85-18.31-10.06-31.11-13.76-12.8-3.71-16.56-2.1-29.48-7.32-12.92-5.23-35.3-10.62-26.36-13.49Z"/>
        </g>
      </g>
    </g>
  </g>
</svg>